<mxfile host="app.diagrams.net" agent="Mozilla/5.0 (X11; Linux x86_64) AppleWebKit/537.36 (KHTML, like Gecko) Chrome/130.0.0.0 Safari/537.36" version="28.1.2">
  <diagram name="Page-1" id="QzoMUp6dM46TAuOXjgov">
    <mxGraphModel dx="2916" dy="796" grid="1" gridSize="10" guides="1" tooltips="1" connect="1" arrows="1" fold="1" page="1" pageScale="1" pageWidth="850" pageHeight="1100" math="0" shadow="0">
      <root>
        <mxCell id="0" />
        <mxCell id="1" parent="0" />
        <mxCell id="WhHDiYqPfNyPdKwV3P8i-1" value="Front-Mui" style="swimlane;whiteSpace=wrap;html=1;fillColor=#dae8fc;strokeColor=#6c8ebf;" parent="1" vertex="1">
          <mxGeometry x="-150" y="150" width="1370" height="860" as="geometry" />
        </mxCell>
        <mxCell id="WhHDiYqPfNyPdKwV3P8i-4" value="Main-Navigation" style="swimlane;whiteSpace=wrap;html=1;startSize=23;" parent="WhHDiYqPfNyPdKwV3P8i-1" vertex="1">
          <mxGeometry x="30" y="60" width="130" height="210" as="geometry" />
        </mxCell>
        <mxCell id="WhHDiYqPfNyPdKwV3P8i-29" value="Trade" style="rounded=0;whiteSpace=wrap;html=1;fillColor=#fff2cc;strokeColor=#d6b656;" parent="WhHDiYqPfNyPdKwV3P8i-4" vertex="1">
          <mxGeometry x="10" y="140" width="110" height="40" as="geometry" />
        </mxCell>
        <mxCell id="WhHDiYqPfNyPdKwV3P8i-44" value="Connectors" style="rounded=0;whiteSpace=wrap;html=1;" parent="WhHDiYqPfNyPdKwV3P8i-4" vertex="1">
          <mxGeometry x="10" y="100" width="110" height="40" as="geometry" />
        </mxCell>
        <mxCell id="WhHDiYqPfNyPdKwV3P8i-45" value="Home" style="rounded=0;whiteSpace=wrap;html=1;" parent="WhHDiYqPfNyPdKwV3P8i-4" vertex="1">
          <mxGeometry x="10" y="60" width="110" height="40" as="geometry" />
        </mxCell>
        <mxCell id="WhHDiYqPfNyPdKwV3P8i-6" value="Page-Container" style="swimlane;whiteSpace=wrap;html=1;" parent="WhHDiYqPfNyPdKwV3P8i-1" vertex="1">
          <mxGeometry x="170" y="120" width="1150" height="730" as="geometry" />
        </mxCell>
        <mxCell id="WhHDiYqPfNyPdKwV3P8i-13" value="TradingPage" style="swimlane;whiteSpace=wrap;html=1;fillColor=#f8cecc;strokeColor=#b85450;" parent="WhHDiYqPfNyPdKwV3P8i-6" vertex="1">
          <mxGeometry x="20" y="40" width="1110" height="680" as="geometry" />
        </mxCell>
        <mxCell id="WhHDiYqPfNyPdKwV3P8i-51" value="analytic-chart" style="swimlane;whiteSpace=wrap;html=1;" parent="WhHDiYqPfNyPdKwV3P8i-13" vertex="1">
          <mxGeometry x="15" y="30" width="1065" height="640" as="geometry" />
        </mxCell>
        <mxCell id="WhHDiYqPfNyPdKwV3P8i-7" value="https://alg0.trade/trading/instruments" style="rounded=0;whiteSpace=wrap;html=1;align=left;" parent="WhHDiYqPfNyPdKwV3P8i-1" vertex="1">
          <mxGeometry x="30" y="30" width="590" height="20" as="geometry" />
        </mxCell>
        <mxCell id="WhHDiYqPfNyPdKwV3P8i-46" value="top-navigation" style="swimlane;whiteSpace=wrap;html=1;fillColor=#d5e8d4;strokeColor=#82b366;" parent="WhHDiYqPfNyPdKwV3P8i-1" vertex="1">
          <mxGeometry x="170" y="50" width="1070" height="60" as="geometry" />
        </mxCell>
        <mxCell id="WhHDiYqPfNyPdKwV3P8i-59" value="Trading / Instruments" style="text;html=1;align=center;verticalAlign=middle;whiteSpace=wrap;rounded=0;" parent="WhHDiYqPfNyPdKwV3P8i-46" vertex="1">
          <mxGeometry x="20" y="30" width="140" height="30" as="geometry" />
        </mxCell>
        <mxCell id="WhHDiYqPfNyPdKwV3P8i-52" value="Routing-Manager" style="swimlane;whiteSpace=wrap;html=1;fillColor=#cce5ff;strokeColor=#36393d;" parent="1" vertex="1">
          <mxGeometry x="-640" y="140" width="260" height="520" as="geometry" />
        </mxCell>
        <mxCell id="6Mem3ri6b4XV6K1-fHUd-4" value="Navigation-Tree" style="swimlane;fontStyle=1;childLayout=stackLayout;horizontal=1;startSize=20;horizontalStack=0;resizeParent=1;resizeParentMax=0;resizeLast=0;collapsible=1;marginBottom=0;whiteSpace=wrap;html=1;fillColor=#ffcc99;strokeColor=#36393d;" vertex="1" parent="WhHDiYqPfNyPdKwV3P8i-52">
          <mxGeometry x="20" y="30" width="200" height="210" as="geometry" />
        </mxCell>
        <mxCell id="6Mem3ri6b4XV6K1-fHUd-5" value="Home" style="text;strokeColor=none;fillColor=#D8FFF8;align=left;verticalAlign=middle;spacingLeft=4;spacingRight=4;overflow=hidden;points=[[0,0.5],[1,0.5]];portConstraint=eastwest;rotatable=0;whiteSpace=wrap;html=1;" vertex="1" parent="6Mem3ri6b4XV6K1-fHUd-4">
          <mxGeometry y="20" width="200" height="30" as="geometry" />
        </mxCell>
        <mxCell id="6Mem3ri6b4XV6K1-fHUd-13" value="Trading" style="swimlane;fontStyle=0;childLayout=stackLayout;horizontal=1;startSize=20;horizontalStack=0;resizeParent=1;resizeParentMax=0;resizeLast=0;collapsible=1;marginBottom=0;whiteSpace=wrap;html=1;fillColor=#dae8fc;strokeColor=#6c8ebf;" vertex="1" parent="6Mem3ri6b4XV6K1-fHUd-4">
          <mxGeometry y="50" width="200" height="80" as="geometry" />
        </mxCell>
        <mxCell id="6Mem3ri6b4XV6K1-fHUd-14" value="Analytics" style="text;strokeColor=none;fillColor=#D8FFF8;align=left;verticalAlign=middle;spacingLeft=4;spacingRight=4;overflow=hidden;points=[[0,0.5],[1,0.5]];portConstraint=eastwest;rotatable=0;whiteSpace=wrap;html=1;" vertex="1" parent="6Mem3ri6b4XV6K1-fHUd-13">
          <mxGeometry y="20" width="200" height="30" as="geometry" />
        </mxCell>
        <mxCell id="6Mem3ri6b4XV6K1-fHUd-15" value="Instruments" style="text;strokeColor=none;fillColor=#AECCC5;align=left;verticalAlign=middle;spacingLeft=4;spacingRight=4;overflow=hidden;points=[[0,0.5],[1,0.5]];portConstraint=eastwest;rotatable=0;whiteSpace=wrap;html=1;fontStyle=1" vertex="1" parent="6Mem3ri6b4XV6K1-fHUd-13">
          <mxGeometry y="50" width="200" height="30" as="geometry" />
        </mxCell>
        <mxCell id="6Mem3ri6b4XV6K1-fHUd-8" value="Settings" style="swimlane;fontStyle=0;childLayout=stackLayout;horizontal=1;startSize=20;horizontalStack=0;resizeParent=1;resizeParentMax=0;resizeLast=0;collapsible=1;marginBottom=0;whiteSpace=wrap;html=1;fillColor=#dae8fc;strokeColor=#6c8ebf;" vertex="1" parent="6Mem3ri6b4XV6K1-fHUd-4">
          <mxGeometry y="130" width="200" height="80" as="geometry">
            <mxRectangle y="140" width="140" height="30" as="alternateBounds" />
          </mxGeometry>
        </mxCell>
        <mxCell id="6Mem3ri6b4XV6K1-fHUd-9" value="Account" style="text;strokeColor=none;fillColor=#D8FFF8;align=left;verticalAlign=middle;spacingLeft=4;spacingRight=4;overflow=hidden;points=[[0,0.5],[1,0.5]];portConstraint=eastwest;rotatable=0;whiteSpace=wrap;html=1;" vertex="1" parent="6Mem3ri6b4XV6K1-fHUd-8">
          <mxGeometry y="20" width="200" height="30" as="geometry" />
        </mxCell>
        <mxCell id="6Mem3ri6b4XV6K1-fHUd-10" value="Theme" style="text;strokeColor=none;fillColor=#D8FFF8;align=left;verticalAlign=middle;spacingLeft=4;spacingRight=4;overflow=hidden;points=[[0,0.5],[1,0.5]];portConstraint=eastwest;rotatable=0;whiteSpace=wrap;html=1;" vertex="1" parent="6Mem3ri6b4XV6K1-fHUd-8">
          <mxGeometry y="50" width="200" height="30" as="geometry" />
        </mxCell>
        <mxCell id="6Mem3ri6b4XV6K1-fHUd-26" value="Methods" style="swimlane;fontStyle=1;childLayout=stackLayout;horizontal=1;startSize=20;horizontalStack=0;resizeParent=1;resizeParentMax=0;resizeLast=0;collapsible=1;marginBottom=0;whiteSpace=wrap;html=1;fillColor=#ffcc99;strokeColor=#36393d;" vertex="1" parent="WhHDiYqPfNyPdKwV3P8i-52">
          <mxGeometry x="20" y="260" width="200" height="250" as="geometry" />
        </mxCell>
        <mxCell id="6Mem3ri6b4XV6K1-fHUd-27" value="change(path):Page" style="text;strokeColor=none;fillColor=none;align=left;verticalAlign=middle;spacingLeft=4;spacingRight=4;overflow=hidden;points=[[0,0.5],[1,0.5]];portConstraint=eastwest;rotatable=0;whiteSpace=wrap;html=1;" vertex="1" parent="6Mem3ri6b4XV6K1-fHUd-26">
          <mxGeometry y="20" width="200" height="30" as="geometry" />
        </mxCell>
        <mxCell id="6Mem3ri6b4XV6K1-fHUd-28" value="getCurrent():Page&lt;div&gt;&lt;br&gt;&lt;br&gt;&lt;div&gt;&lt;br&gt;&lt;/div&gt;&lt;/div&gt;" style="text;strokeColor=none;fillColor=none;align=left;verticalAlign=middle;spacingLeft=4;spacingRight=4;overflow=hidden;points=[[0,0.5],[1,0.5]];portConstraint=eastwest;rotatable=0;whiteSpace=wrap;html=1;" vertex="1" parent="6Mem3ri6b4XV6K1-fHUd-26">
          <mxGeometry y="50" width="200" height="30" as="geometry" />
        </mxCell>
        <mxCell id="6Mem3ri6b4XV6K1-fHUd-45" value="&amp;nbsp;getNavigation():Navigation" style="text;html=1;align=left;verticalAlign=middle;whiteSpace=wrap;rounded=0;" vertex="1" parent="6Mem3ri6b4XV6K1-fHUd-26">
          <mxGeometry y="80" width="200" height="30" as="geometry" />
        </mxCell>
        <mxCell id="6Mem3ri6b4XV6K1-fHUd-40" value="Event-Dispatcher" style="swimlane;fontStyle=1;childLayout=stackLayout;horizontal=1;startSize=20;horizontalStack=0;resizeParent=1;resizeParentMax=0;resizeLast=0;collapsible=1;marginBottom=0;whiteSpace=wrap;html=1;fillColor=#FFE5BF;strokeColor=#36393d;" vertex="1" parent="6Mem3ri6b4XV6K1-fHUd-26">
          <mxGeometry y="110" width="200" height="140" as="geometry" />
        </mxCell>
        <mxCell id="6Mem3ri6b4XV6K1-fHUd-41" value="on(PAGE_CHANGE,handler)&amp;nbsp;" style="text;strokeColor=none;fillColor=none;align=left;verticalAlign=middle;spacingLeft=4;spacingRight=4;overflow=hidden;points=[[0,0.5],[1,0.5]];portConstraint=eastwest;rotatable=0;whiteSpace=wrap;html=1;" vertex="1" parent="6Mem3ri6b4XV6K1-fHUd-40">
          <mxGeometry y="20" width="200" height="30" as="geometry" />
        </mxCell>
        <mxCell id="6Mem3ri6b4XV6K1-fHUd-42" value="on(PAGE_LOADED,handler)" style="text;strokeColor=none;fillColor=none;align=left;verticalAlign=middle;spacingLeft=4;spacingRight=4;overflow=hidden;points=[[0,0.5],[1,0.5]];portConstraint=eastwest;rotatable=0;whiteSpace=wrap;html=1;" vertex="1" parent="6Mem3ri6b4XV6K1-fHUd-40">
          <mxGeometry y="50" width="200" height="30" as="geometry" />
        </mxCell>
        <mxCell id="6Mem3ri6b4XV6K1-fHUd-43" value="on(PAGE_UNLOAD, handler)" style="text;strokeColor=none;fillColor=none;align=left;verticalAlign=middle;spacingLeft=4;spacingRight=4;overflow=hidden;points=[[0,0.5],[1,0.5]];portConstraint=eastwest;rotatable=0;whiteSpace=wrap;html=1;" vertex="1" parent="6Mem3ri6b4XV6K1-fHUd-40">
          <mxGeometry y="80" width="200" height="30" as="geometry" />
        </mxCell>
        <mxCell id="6Mem3ri6b4XV6K1-fHUd-44" value="on(PAGE_ERROR, handler)" style="text;strokeColor=none;fillColor=none;align=left;verticalAlign=middle;spacingLeft=4;spacingRight=4;overflow=hidden;points=[[0,0.5],[1,0.5]];portConstraint=eastwest;rotatable=0;whiteSpace=wrap;html=1;" vertex="1" parent="6Mem3ri6b4XV6K1-fHUd-40">
          <mxGeometry y="110" width="200" height="30" as="geometry" />
        </mxCell>
        <mxCell id="WhHDiYqPfNyPdKwV3P8i-53" value="Sync with location.href" style="edgeStyle=orthogonalEdgeStyle;rounded=0;orthogonalLoop=1;jettySize=auto;html=1;entryX=1;entryY=0.25;entryDx=0;entryDy=0;" parent="1" source="WhHDiYqPfNyPdKwV3P8i-7" target="WhHDiYqPfNyPdKwV3P8i-52" edge="1">
          <mxGeometry x="0.0423" y="15" relative="1" as="geometry">
            <Array as="points">
              <mxPoint x="-310" y="190" />
              <mxPoint x="-310" y="275" />
            </Array>
            <mxPoint as="offset" />
          </mxGeometry>
        </mxCell>
        <mxCell id="6Mem3ri6b4XV6K1-fHUd-32" style="edgeStyle=orthogonalEdgeStyle;rounded=0;orthogonalLoop=1;jettySize=auto;html=1;entryX=0;entryY=0.75;entryDx=0;entryDy=0;" edge="1" parent="1" source="6Mem3ri6b4XV6K1-fHUd-26" target="WhHDiYqPfNyPdKwV3P8i-44">
          <mxGeometry relative="1" as="geometry">
            <Array as="points">
              <mxPoint x="-230" y="610" />
              <mxPoint x="-230" y="340" />
            </Array>
          </mxGeometry>
        </mxCell>
        <mxCell id="6Mem3ri6b4XV6K1-fHUd-33" value="on(PAGE_LOAD, changeMenuItem)" style="edgeLabel;html=1;align=center;verticalAlign=middle;resizable=0;points=[];" vertex="1" connectable="0" parent="6Mem3ri6b4XV6K1-fHUd-32">
          <mxGeometry x="0.0772" y="3" relative="1" as="geometry">
            <mxPoint as="offset" />
          </mxGeometry>
        </mxCell>
        <mxCell id="6Mem3ri6b4XV6K1-fHUd-34" style="edgeStyle=orthogonalEdgeStyle;rounded=0;orthogonalLoop=1;jettySize=auto;html=1;entryX=0;entryY=0.75;entryDx=0;entryDy=0;" edge="1" parent="1" source="6Mem3ri6b4XV6K1-fHUd-26" target="WhHDiYqPfNyPdKwV3P8i-46">
          <mxGeometry relative="1" as="geometry">
            <Array as="points">
              <mxPoint x="-260" y="530" />
              <mxPoint x="-260" y="245" />
            </Array>
          </mxGeometry>
        </mxCell>
        <mxCell id="6Mem3ri6b4XV6K1-fHUd-35" value="Modules" style="swimlane;fontStyle=0;childLayout=stackLayout;horizontal=1;startSize=20;horizontalStack=0;resizeParent=1;resizeParentMax=0;resizeLast=0;collapsible=1;marginBottom=0;whiteSpace=wrap;html=1;fillColor=#eeeeee;strokeColor=#36393d;" vertex="1" parent="1">
          <mxGeometry x="-640" y="690" width="255" height="140" as="geometry" />
        </mxCell>
        <mxCell id="WhHDiYqPfNyPdKwV3P8i-20" value="front-analytics-chart" style="swimlane;whiteSpace=wrap;html=1;" parent="6Mem3ri6b4XV6K1-fHUd-35" vertex="1" collapsed="1">
          <mxGeometry y="20" width="255" height="30" as="geometry">
            <mxRectangle y="20" width="140" height="60" as="alternateBounds" />
          </mxGeometry>
        </mxCell>
        <mxCell id="WhHDiYqPfNyPdKwV3P8i-23" value="front-instruments" style="swimlane;whiteSpace=wrap;html=1;" parent="6Mem3ri6b4XV6K1-fHUd-35" vertex="1" collapsed="1">
          <mxGeometry y="50" width="255" height="30" as="geometry">
            <mxRectangle y="50" width="140" height="60" as="alternateBounds" />
          </mxGeometry>
        </mxCell>
        <mxCell id="WhHDiYqPfNyPdKwV3P8i-24" value="front-top-menu" style="swimlane;whiteSpace=wrap;html=1;" parent="6Mem3ri6b4XV6K1-fHUd-35" vertex="1" collapsed="1">
          <mxGeometry y="80" width="255" height="30" as="geometry">
            <mxRectangle y="80" width="190" height="60" as="alternateBounds" />
          </mxGeometry>
        </mxCell>
        <mxCell id="WhHDiYqPfNyPdKwV3P8i-25" value="front-main-menu" style="swimlane;whiteSpace=wrap;html=1;" parent="6Mem3ri6b4XV6K1-fHUd-35" vertex="1" collapsed="1">
          <mxGeometry y="110" width="255" height="30" as="geometry">
            <mxRectangle y="110" width="190" height="60" as="alternateBounds" />
          </mxGeometry>
        </mxCell>
        <mxCell id="6Mem3ri6b4XV6K1-fHUd-46" value="Page-Templates (src/pages)" style="swimlane;fontStyle=0;childLayout=stackLayout;horizontal=1;startSize=20;horizontalStack=0;resizeParent=1;resizeParentMax=0;resizeLast=0;collapsible=1;marginBottom=0;whiteSpace=wrap;html=1;fillColor=#eeeeee;strokeColor=#36393d;" vertex="1" parent="1">
          <mxGeometry x="-640" y="850" width="255" height="140" as="geometry" />
        </mxCell>
        <mxCell id="6Mem3ri6b4XV6K1-fHUd-47" value="front-analytics-chart" style="swimlane;whiteSpace=wrap;html=1;" vertex="1" collapsed="1" parent="6Mem3ri6b4XV6K1-fHUd-46">
          <mxGeometry y="20" width="255" height="30" as="geometry">
            <mxRectangle y="20" width="140" height="60" as="alternateBounds" />
          </mxGeometry>
        </mxCell>
        <mxCell id="6Mem3ri6b4XV6K1-fHUd-48" value="front-instruments" style="swimlane;whiteSpace=wrap;html=1;" vertex="1" collapsed="1" parent="6Mem3ri6b4XV6K1-fHUd-46">
          <mxGeometry y="50" width="255" height="30" as="geometry">
            <mxRectangle y="50" width="140" height="60" as="alternateBounds" />
          </mxGeometry>
        </mxCell>
        <mxCell id="6Mem3ri6b4XV6K1-fHUd-49" value="front-top-menu" style="swimlane;whiteSpace=wrap;html=1;" vertex="1" collapsed="1" parent="6Mem3ri6b4XV6K1-fHUd-46">
          <mxGeometry y="80" width="255" height="30" as="geometry">
            <mxRectangle y="80" width="190" height="60" as="alternateBounds" />
          </mxGeometry>
        </mxCell>
        <mxCell id="6Mem3ri6b4XV6K1-fHUd-50" value="front-main-menu" style="swimlane;whiteSpace=wrap;html=1;" vertex="1" collapsed="1" parent="6Mem3ri6b4XV6K1-fHUd-46">
          <mxGeometry y="110" width="255" height="30" as="geometry">
            <mxRectangle y="110" width="190" height="60" as="alternateBounds" />
          </mxGeometry>
        </mxCell>
        <mxCell id="6Mem3ri6b4XV6K1-fHUd-51" style="edgeStyle=orthogonalEdgeStyle;rounded=0;orthogonalLoop=1;jettySize=auto;html=1;entryX=1;entryY=0.25;entryDx=0;entryDy=0;dashed=1;dashPattern=8 8;" edge="1" parent="1" source="WhHDiYqPfNyPdKwV3P8i-4" target="WhHDiYqPfNyPdKwV3P8i-25">
          <mxGeometry relative="1" as="geometry">
            <Array as="points">
              <mxPoint x="-200" y="315" />
              <mxPoint x="-200" y="808" />
            </Array>
          </mxGeometry>
        </mxCell>
        <mxCell id="6Mem3ri6b4XV6K1-fHUd-52" value="Lazy-loaded" style="edgeLabel;html=1;align=center;verticalAlign=middle;resizable=0;points=[];" vertex="1" connectable="0" parent="6Mem3ri6b4XV6K1-fHUd-51">
          <mxGeometry x="-0.0205" y="4" relative="1" as="geometry">
            <mxPoint as="offset" />
          </mxGeometry>
        </mxCell>
        <mxCell id="6Mem3ri6b4XV6K1-fHUd-54" style="edgeStyle=orthogonalEdgeStyle;rounded=0;orthogonalLoop=1;jettySize=auto;html=1;entryX=1;entryY=0.5;entryDx=0;entryDy=0;dashed=1;dashPattern=8 8;" edge="1" parent="1" source="WhHDiYqPfNyPdKwV3P8i-51" target="WhHDiYqPfNyPdKwV3P8i-23">
          <mxGeometry relative="1" as="geometry">
            <Array as="points">
              <mxPoint x="-180" y="495" />
              <mxPoint x="-180" y="755" />
            </Array>
          </mxGeometry>
        </mxCell>
        <mxCell id="6Mem3ri6b4XV6K1-fHUd-55" style="edgeStyle=orthogonalEdgeStyle;rounded=0;orthogonalLoop=1;jettySize=auto;html=1;dashed=1;dashPattern=12 12;" edge="1" parent="1" source="WhHDiYqPfNyPdKwV3P8i-51" target="6Mem3ri6b4XV6K1-fHUd-47">
          <mxGeometry relative="1" as="geometry" />
        </mxCell>
        <mxCell id="6Mem3ri6b4XV6K1-fHUd-56" value="Used as a template" style="edgeLabel;html=1;align=center;verticalAlign=middle;resizable=0;points=[];" vertex="1" connectable="0" parent="6Mem3ri6b4XV6K1-fHUd-55">
          <mxGeometry x="0.5549" y="2" relative="1" as="geometry">
            <mxPoint as="offset" />
          </mxGeometry>
        </mxCell>
      </root>
    </mxGraphModel>
  </diagram>
</mxfile>
